# xmcd
#
# Track frame offsets: 
#        150
#        14090
#        23785
#        35635
#        48432
#        59585
#        75937
#        91085
#        102667
#        115332
#        127020
#        138490
#        150465
#        162775
#        173872
#        187130
#        199080
#        209150
#        218720
#        228430
#        239260
#        251562
#        263545
#        272260
#        286562
#
# Disc length: 4022 seconds
#
# Revision: 2
# Processed by: cddbd v1.5.2PL0 Copyright (c) Steve Scherf et al.
# Submitted via: ExactAudioCopy v0.99pb5
#
DISCID=620fb419
DTITLE=Various Artist - El Paso - und andere wahre Geschichten aus dem Wilden
DTITLE=Westen
DYEAR=2000
DGENRE=Schlager
TTITLE0=Western-Trio (mit Lolita) - El Paso
TTITLE1=Die Oklahoma Boys - Texas-Ranger-Melodie
TTITLE2=Mal Sondock - Texas Cowboy und Mexico Girl
TTITLE3=Das Tom Dooley Trio - Halbblut
TTITLE4=Claus Herwig - Mein Pony und ich
TTITLE5=Gunnar Wiklund - Geh' nicht zu den indios
TTITLE6=Die Nilsen Brothers - Tom Dooley
TTITLE7=Claus Herwig - Zehntausend Meilen weit
TTITLE8=Pinkas Braun - Endlos weit (Nebraska Melodie)
TTITLE9=Frankie Olsen - Wenn die Prärielilien blüh'n
TTITLE10=Peter Bennett - Tim und Tom
TTITLE11=Country Singers - Cowboy Bonny
TTITLE12=Camillo Felgen - Jim, ich trug ein weisses Hemd
TTITLE13=Ralf Paulsen - Das Navajo-Kind
TTITLE14=Yellow Stone Trio - Der letzte Mohikaner
TTITLE15=Das Silbersee Trio - Am Fuß der blauen Berge
TTITLE16=Eddie Wilson - Die Story vom tapferen Cowboy
TTITLE17=Das Silbersee Trio - Roter Mann vom Yellow River
TTITLE18=Frankie Olsen - Hab' ein Haus in der Prärie
TTITLE19=Ralf Paulsen - Fury
TTITLE20=Die Namenlosen - Mein braves Pferd
TTITLE21=Ralf Bendix - Mohikana
TTITLE22=Yellow Stone Trio - Tennessee-Melodie
TTITLE23=Paul Kuhn - Einsamer Cowboy
TTITLE24=Wolfgang Lukschy - Das Lied vom Tod
EXTD=
EXTT0=
EXTT1=
EXTT2=
EXTT3=
EXTT4=
EXTT5=
EXTT6=
EXTT7=
EXTT8=
EXTT9=
EXTT10=
EXTT11=
EXTT12=
EXTT13=
EXTT14=
EXTT15=
EXTT16=
EXTT17=
EXTT18=
EXTT19=
EXTT20=
EXTT21=
EXTT22=
EXTT23=
EXTT24=
PLAYORDER=
